# xmcd
#
# Track frame offsets:
#	150
#	11537
#	25362
#	39887
#	50362
#	66322
#	78317
#	90772
#	101462
#	114287
#	131125
#	142225
#	156962
#	168342
#	188037
#	204037
#	215362
#	225012
#	239925
#	251637
#
# Disc length: 3491 seconds
#
# Revision: 1
# Processed by: cddbd v1.4b42PL1 Copyright (c) Steve Scherf et al.
# Submitted via: audiograbber 1.80
#
DISCID=010da114
DTITLE=Various Artist - Kings of Country - Disc 1
DYEAR=1900
DGENRE=
TTITLE0=Nelson, Willie - On the Road Again
TTITLE1=Nelson, Willie - My Heroes Have Always Been Cowboys
TTITLE2=Nelson, Willie - Sweet Memories
TTITLE3=Nelson, Willie - Blue Eyes Crying in the Rain
TTITLE4=Nelson, Willie - Always on My Mind
TTITLE5=Cash, Johnny - Ring of Fire
TTITLE6=Cash, Johnny - I Walk the Line
TTITLE7=Cash, Johnny with June Carter Cash and the Statler Brothers - Daddy San
TTITLE7=g Bass
TTITLE8=Cash, Johnny - Folsom Prison Blues
TTITLE9=Cash, Johnny - A Boy Named Sue
TTITLE10=Robbins, Marty - Singing the Blues
TTITLE11=Robbins, Marty - Don't Worry
TTITLE12=Robbins, Marty - A White Sport Coat (and a Pink Carnation)
TTITLE13=Robbins, Marty - El Paso
TTITLE14=Robbins, Marty - My Woman, My Woman, My Wife
TTITLE15=Jones, George - I'll Share My World with You
TTITLE16=Jones, George - The Race is On
TTITLE17=Jones, George - He Stopped Loving Her Today
TTITLE18=Jones, George - She Thinks I Still Care
TTITLE19=Jones, George - Walk Through This World with Me
EXTD=Reader's Digest Music
EXTT0=
EXTT1=
EXTT2=
EXTT3=
EXTT4=
EXTT5=
EXTT6=
EXTT7=
EXTT8=
EXTT9=
EXTT10=
EXTT11=
EXTT12=
EXTT13=
EXTT14=
EXTT15=
EXTT16=
EXTT17=
EXTT18=
EXTT19=
PLAYORDER=
